# xmcd CD database file
#
# Track frame offsets:
#	150
#	18290
#	35682
#	56316
#	85873
#	107287
#	123836
#	143484
#	157026
#	177359
#	211019
#	229067
#	242700
#	263818
#	282234
#	307984
#	326853
#
# Disc length: 4566 seconds
#
# Revision: 0
# Processed by: cddbd v1.5.2PL0 Copyright (c) Steve Scherf et al.
# Submitted via: CDex 1.51
#
DISCID=db11d411
DTITLE=shanson kavkaz2 - sbornik
DYEAR=2005
DGENRE=Merengue
TTITLE0=01_mama
TTITLE1=02_gulyayu do utra
TTITLE2=03_ya lublyu tebya
TTITLE3=04_porovnu
TTITLE4=05_bez tebya
TTITLE5=06_teilisi
TTITLE6=07_moy sinok
TTITLE7=08_akkordeon
TTITLE8=09_1001 no4
TTITLE9=10_vor privikwiy vorovat
TTITLE10=11_ojidaniye
TTITLE11=12_mardjandja
TTITLE12=13_sovet da lyubov
TTITLE13=14_lesopolosa
TTITLE14=15_milaya ti gde
TTITLE15=16_zvezda azii
TTITLE16=17_devushka djan
EXTD=YEAR: 2005
EXTT0=
EXTT1=
EXTT2=
EXTT3=
EXTT4=
EXTT5=
EXTT6=
EXTT7=
EXTT8=
EXTT9=
EXTT10=
EXTT11=
EXTT12=
EXTT13=
EXTT14=
EXTT15=
EXTT16=
PLAYORDER=
